<svg width="35" height="35" viewBox="0 0 35 35" fill="none" xmlns="http://www.w3.org/2000/svg">
<path d="M30.7372 24.2585C30.0144 25.8615 29.6662 26.5773 28.7352 27.9948C27.4367 29.9723 25.6027 32.4363 23.3329 32.4573C21.3169 32.4748 20.7989 31.1448 18.0602 31.1605C15.3232 31.1745 14.7527 32.4818 12.7349 32.4625C10.4652 32.4415 8.72742 30.2173 7.42717 28.238C3.79242 22.708 3.41267 16.2155 5.65442 12.7628C7.24692 10.311 9.76167 8.87601 12.1242 8.87601C14.5304 8.87601 16.0442 10.1955 18.0322 10.1955C19.9624 10.1955 21.1384 8.87251 23.9209 8.87251C26.0209 8.87251 28.2504 10.0188 29.8377 11.9963C24.6367 14.847 25.4802 22.274 30.7372 24.2585ZM21.8104 6.66401C22.8202 5.36551 23.5884 3.53501 23.3102 1.66251C21.6582 1.77626 19.7279 2.82626 18.5992 4.19651C17.5772 5.43901 16.7319 7.28176 17.0592 9.07376C18.8617 9.12801 20.7272 8.05176 21.8104 6.66401Z" fill="white"/>
</svg>
