<svg width="28" height="28" viewBox="0 0 28 28" fill="none" xmlns="http://www.w3.org/2000/svg">
<g clip-path="url(#clip0_85_1996)">
<path d="M24.8889 3.88892H3.11111C2.28599 3.88892 1.49467 4.21669 0.911223 4.80014C0.327777 5.38359 0 6.17491 0 7.00003L0 21C0 21.8251 0.327777 22.6165 0.911223 23.1999C1.49467 23.7834 2.28599 24.1111 3.11111 24.1111H24.8889C25.714 24.1111 26.5053 23.7834 27.0888 23.1999C27.6722 22.6165 28 21.8251 28 21V7.00003C28 6.17491 27.6722 5.38359 27.0888 4.80014C26.5053 4.21669 25.714 3.88892 24.8889 3.88892Z" fill="#006C35"/>
<path d="M6.93713 10.9277C7.42868 10.9744 7.15724 10.0963 7.33535 9.93681C7.36879 9.85826 7.43101 9.85748 7.43568 9.95703V10.7021C7.43101 10.9448 7.59046 11.0156 7.71413 11.0661C7.84324 11.056 7.92879 11.0607 7.97935 11.1859L8.04001 12.4755C8.04001 12.4755 8.33868 12.561 8.35268 11.7498C8.36746 11.2738 8.25779 10.8756 8.32235 10.783C8.32468 10.692 8.44057 10.6866 8.52146 10.7309C8.64979 10.8211 8.70735 10.9331 8.90646 10.8888C9.21057 10.8056 9.39257 10.6578 9.39724 10.4245C9.37935 10.2028 9.35446 9.98115 9.25879 9.75948C9.27201 9.71903 9.20046 9.61481 9.21368 9.57437C9.26813 9.65992 9.35135 9.65292 9.37001 9.57437C9.31868 9.40403 9.23857 9.2407 9.1079 9.16992C9.00057 9.07503 8.84346 9.09448 8.7859 9.29203C8.75946 9.51914 8.86835 9.78981 9.03324 10.0099C9.06824 10.0963 9.11801 10.2394 9.09624 10.3685C9.00835 10.4183 8.91968 10.398 8.84657 10.3203C8.84657 10.3203 8.60468 10.139 8.60468 10.0986C8.66924 9.68792 8.61946 9.64126 8.58368 9.5277C8.55879 9.37059 8.48413 9.32003 8.42346 9.2127C8.36279 9.14892 8.28113 9.14892 8.24224 9.2127C8.1349 9.39781 8.18468 9.79603 8.26246 9.97415C8.31768 10.1375 8.40324 10.2409 8.36279 10.2409C8.32935 10.3335 8.2609 10.3117 8.21113 10.2051C8.13957 9.98426 8.12557 9.65526 8.12557 9.5067C8.10379 9.32314 8.08046 8.93037 7.9599 8.83081C7.88601 8.73048 7.77635 8.7787 7.73824 8.87126C7.73046 9.05326 7.7289 9.23603 7.7499 9.40481C7.83235 9.69959 7.85879 9.95937 7.89924 10.2619C7.91013 10.6671 7.66513 10.4377 7.67601 10.237C7.73279 9.97648 7.71801 9.56581 7.66746 9.46159C7.62779 9.35814 7.58035 9.3317 7.4839 9.34881C7.40768 9.34259 7.21013 9.55881 7.15413 9.91659C7.15413 9.91659 7.10668 10.1009 7.08646 10.265C7.05924 10.4501 6.9379 10.5808 6.85235 10.2394C6.77846 9.99126 6.73335 9.37914 6.60968 9.52226C6.5739 10.0006 6.53113 10.8421 6.93713 10.9277Z" fill="white"/>
<path d="M7.67673 11.277C7.27228 11.2848 6.6804 11.8082 6.66406 12.0983C7.09028 11.893 7.50951 11.6954 7.94351 11.4839C7.87351 11.3789 7.93962 11.2848 7.67673 11.277Z" fill="white"/>
<path d="M9.90694 12.8458C10.0944 12.2212 9.8766 11.7608 9.97849 11.7631C10.1939 11.9957 10.4957 11.7942 10.5618 11.7133C10.5906 11.6729 10.6614 11.6465 10.7112 11.6993C10.8799 11.8207 11.177 11.7631 11.2385 11.55C11.2773 11.336 11.3012 11.1195 11.31 10.9021C11.1724 10.9449 11.0697 10.9737 11.0604 11.0305L11.0316 11.2156C11.0199 11.2755 10.9009 11.2778 10.8963 11.2016C10.8442 10.9643 10.6279 10.9332 10.4973 11.3011C10.4094 11.3727 10.2507 11.3867 10.2336 11.2801C10.2546 11.0336 10.155 11.0001 9.95594 11.116C9.89216 10.6268 9.8276 10.1593 9.76382 9.67012C9.84705 9.66778 9.92327 9.72923 9.99871 9.63434C9.91549 9.37534 9.73971 8.84645 9.64249 8.80834C9.59505 8.75078 9.5546 8.78656 9.49316 8.80134C9.38894 8.83478 9.29171 8.92501 9.32205 9.10001C9.44571 9.85056 9.5266 10.4222 9.64949 11.1728C9.66816 11.2607 9.59505 11.3766 9.50016 11.3649C9.33916 11.256 9.29871 11.0351 9.02338 11.0445C8.82349 11.0468 8.5956 11.263 8.5676 11.4722C8.53416 11.6379 8.52249 11.8183 8.5676 11.9638C8.7076 12.1318 8.87638 12.1155 9.02338 12.0773C9.14393 12.0276 9.24427 11.9062 9.28627 11.935C9.31505 11.97 9.29327 12.369 8.71694 12.6755C8.36771 12.8318 8.09005 12.8676 7.94071 12.5829C7.84816 12.4048 7.94771 11.7281 7.71982 11.8852C7.04549 13.6236 9.29871 13.8647 9.55071 11.9568C9.57482 11.8782 9.66971 11.7997 9.68605 11.928C9.63394 13.6562 7.94305 13.7752 7.65605 13.2316C7.58449 13.1032 7.56349 12.8186 7.55649 12.6474C7.51371 12.3076 7.3356 12.4382 7.3076 12.775C7.27882 12.9624 7.2866 13.0153 7.2866 13.195C7.37605 14.56 9.55382 13.9736 9.90694 12.8458ZM9.06693 11.6651C9.05293 11.6916 8.99149 11.6807 8.94638 11.6807C8.89505 11.6783 8.87094 11.6698 8.83982 11.6286C8.82582 11.5819 8.86938 11.5376 8.88882 11.5026C8.91294 11.4613 9.04282 11.4186 9.08871 11.5337C9.09721 11.5555 9.09967 11.5793 9.09584 11.6024C9.092 11.6255 9.08202 11.6472 9.06693 11.6651Z" fill="white"/>
<path d="M10.5796 10.1181C10.7149 10.0683 11.3566 9.33485 11.3566 9.33485C11.3231 9.30607 11.2936 9.28507 11.2601 9.25629C11.2243 9.22518 11.2282 9.19407 11.2601 9.16374C11.4188 9.07118 11.3682 8.86818 11.285 8.77563C11.2312 8.74922 11.1719 8.73575 11.112 8.73629C11.052 8.73683 10.993 8.75137 10.9397 8.77874C10.8285 8.88529 10.802 9.05641 10.8899 9.16374C10.9755 9.20418 11.061 9.29052 11.0042 9.33796C10.7421 9.61796 10.0235 10.101 10.1067 10.1181C10.1246 10.1414 10.5656 10.1406 10.5796 10.1181ZM11.0548 8.96618C11.096 8.95607 11.1489 8.99263 11.1738 9.04707C11.1987 9.10152 11.1855 9.15363 11.145 9.16374H11.1435C11.103 9.17385 11.0501 9.13729 11.0252 9.08285C11.0011 9.02763 11.0143 8.97629 11.0548 8.96618ZM6.8929 13.4228C6.78712 13.6383 6.74279 13.4905 6.73346 13.37C6.7213 13.1675 6.73147 12.9643 6.76379 12.7641C6.79023 12.593 6.76379 12.6451 6.70935 12.7143C6.46901 13.097 6.44801 13.6694 6.58101 13.8397C6.65101 13.9206 6.7669 13.9564 6.85323 13.93C7.00412 13.8646 7.07023 13.5582 7.03446 13.447C6.98312 13.3684 6.94346 13.356 6.8929 13.4228ZM14.8115 9.37218C15.0883 9.74396 15.3512 10.1227 15.6087 10.5085C15.6592 10.843 15.6958 11.1696 15.7176 11.494C15.7603 12.1193 15.7728 12.796 15.7339 13.4547C15.8506 13.4594 16.0396 13.265 16.1049 12.9811C16.1477 12.5883 16.0893 11.8891 16.0855 11.6573C16.0803 11.512 16.0733 11.3668 16.0645 11.2217C16.3709 11.7226 16.6696 12.2469 16.9612 12.8294C17.0678 12.7796 17.0445 12.1838 16.9822 12.0998C16.7489 11.5997 16.4277 11.1051 16.325 10.9153C16.2869 10.8453 16.157 10.6462 16.0022 10.4183C15.9889 10.2364 15.9671 10.0552 15.9369 9.87541C15.8887 9.54252 16.0746 9.91196 16.0489 9.71829C15.989 9.38541 15.8039 9.16063 15.5877 8.85574C15.5177 8.75696 15.52 8.73674 15.4119 8.87985C15.3737 8.96559 15.3561 9.05909 15.3606 9.15285C15.3268 9.10322 15.2907 9.0552 15.2525 9.00896C15.1351 8.90768 15.0171 8.80709 14.8986 8.70718C14.82 8.65118 14.6287 8.55007 14.5945 8.71807C14.5785 8.83583 14.5843 8.95551 14.6116 9.07118C14.6318 9.15441 14.7523 9.29285 14.8115 9.37218ZM15.387 9.35352C15.4018 9.41807 15.4173 9.48263 15.4275 9.54874L15.4391 9.61174C15.4065 9.56614 15.3725 9.52153 15.3372 9.47796C15.2097 9.32707 15.3155 9.35974 15.387 9.35352Z" fill="white"/>
<path d="M17.0483 12.9834C16.7776 13.2657 16.3872 13.6134 15.9625 13.7744C15.9166 13.8257 16.0761 14.0458 16.2814 14.0458C16.626 14.0054 16.9293 13.8117 17.2101 13.3023C17.2855 13.1841 17.4177 12.9297 17.4209 12.7322C17.4465 11.5764 17.3633 10.6765 17.1899 9.84116C17.1782 9.77414 17.1814 9.70538 17.1992 9.63972C17.221 9.61327 17.2972 9.63972 17.3376 9.57438C17.396 9.51372 17.1813 9.01594 17.0584 8.82461C17.0149 8.73905 17.0001 8.6815 16.9277 8.83472C16.8515 8.95916 16.801 9.17616 16.8072 9.37838C16.9713 10.5163 17.0219 11.5126 17.1292 12.6505C17.1377 12.7602 17.1214 12.9204 17.0483 12.9834ZM21.5827 10.0978C21.5711 10.0169 21.5353 9.82872 21.5493 9.80461C21.5711 9.74705 21.6839 9.81083 21.7243 9.74472C21.7834 9.68483 21.4334 9.23527 21.3113 9.04394C21.267 8.95838 21.2522 8.90083 21.1799 9.05405C21.1036 9.1785 21.0772 9.40172 21.1075 9.59772C21.2903 10.8336 21.4264 11.7623 21.4544 12.8582C21.4381 12.9624 21.435 13.0184 21.386 13.1491C21.2779 13.2875 21.1589 13.4602 21.0461 13.5442C20.9341 13.6274 20.6953 13.7075 20.6167 13.7689C20.3702 13.9128 20.3694 14.0769 20.5701 14.0824C20.9139 14.0419 21.3214 14.0139 21.6022 13.5893C21.6776 13.4711 21.7671 13.1498 21.771 12.9523C21.7966 11.7965 21.7562 10.9332 21.5827 10.0978ZM18.9764 11.0599C18.9795 10.9013 18.9943 10.6913 19.0029 10.5598C19.0067 10.5108 19.0184 10.4556 19.0651 10.4432C19.1125 10.4307 19.1965 10.4914 19.1973 10.4401C19.188 10.3397 19.1677 10.1904 19.111 10.1196C19.0332 10.0045 18.8271 10.0325 18.7905 10.2129C18.7913 10.2798 18.8216 10.3156 18.8162 10.3763C18.8069 10.4105 18.7711 10.4338 18.6863 10.3934C18.7003 10.3809 18.6311 10.2853 18.6311 10.2853C18.565 10.2448 18.4763 10.2876 18.4195 10.3242C18.399 10.3634 18.3867 10.4064 18.3835 10.4506C18.3803 10.4947 18.3862 10.5391 18.4009 10.5808C18.4942 10.7574 18.8201 11.0568 18.9764 11.0599Z" fill="white"/>
<path d="M18.867 9.70745C19.0949 9.98667 19.3274 10.2698 19.5615 10.5576C19.6121 11.2 19.6253 11.7258 19.6751 12.3682C19.6681 12.6404 19.5841 12.8777 19.504 12.9119C19.504 12.9119 19.3834 12.9819 19.3025 12.9049C19.2434 12.8808 19.0077 12.5121 19.0077 12.5121C18.8872 12.4017 18.8078 12.4328 18.7223 12.5121C18.4858 12.74 18.3793 13.1678 18.2191 13.4618C18.1771 13.5279 18.0604 13.5839 17.9305 13.4571C17.6015 13.0068 17.7944 12.3667 17.754 12.5316C17.4607 12.8621 17.5899 13.4089 17.656 13.5271C17.7524 13.72 17.831 13.8444 18.0192 13.9401C18.1903 14.0661 18.3241 13.9868 18.3972 13.8989C18.5698 13.7192 18.5722 13.2642 18.6531 13.1724C18.7091 13.0068 18.853 13.0348 18.9222 13.1087C18.9856 13.1981 19.0696 13.271 19.1672 13.321C19.3282 13.4633 19.5203 13.489 19.7093 13.3591C19.8384 13.2868 19.9232 13.1927 19.9986 13.0068C20.0826 12.7828 20.0367 11.753 20.0196 11.1354C20.1402 11.291 20.2576 11.4536 20.3766 11.6161C20.4287 12.1318 20.4583 12.6451 20.4412 13.1693C20.4287 13.2743 20.8067 12.8582 20.8036 12.6607C20.8021 12.5012 20.8036 12.3566 20.8036 12.2204C20.9856 12.4942 21.163 12.7766 21.3294 13.0752C21.4336 13.0208 21.3994 12.4336 21.3333 12.3527C21.1412 12.0307 20.8853 11.6954 20.7087 11.4559C20.6971 11.4256 20.6909 11.3913 20.6768 11.3626C20.6061 11.1984 20.6504 11.0662 20.617 10.892C20.5843 10.717 20.5928 10.4557 20.5423 10.248C20.5283 10.1671 20.4863 9.90734 20.4987 9.88322C20.519 9.82489 20.5967 9.88478 20.6349 9.81789C20.6916 9.75567 20.4381 9.09845 20.309 8.91023C20.2623 8.82623 20.1783 8.855 20.0741 8.99189C19.9784 9.08211 20.0142 9.28745 20.0507 9.48267C20.1417 9.95556 20.218 10.409 20.2833 10.8578C20.1434 10.6718 20.0021 10.487 19.8594 10.3032L19.8532 10.269C19.8532 10.2604 19.8322 9.86145 19.8135 9.76656C19.8104 9.72845 19.8011 9.71678 19.8415 9.72145C19.8843 9.75722 19.8897 9.75956 19.917 9.772C19.9605 9.77978 19.9986 9.70589 19.973 9.63823L19.5709 8.89778C19.539 8.86589 19.497 8.83167 19.4464 8.90634C19.415 8.93375 19.3899 8.96759 19.3727 9.00557C19.3555 9.04354 19.3467 9.08477 19.3469 9.12645C19.3593 9.30145 19.3896 9.48034 19.4013 9.65611L19.4184 9.751C19.4005 9.73 19.3787 9.70356 19.3694 9.69422C19.028 9.33489 19.5265 9.63589 19.3041 9.35822C19.1159 9.15134 19.0614 9.08678 18.8996 8.96234C18.8187 8.91022 18.7697 8.81067 18.7433 8.98022C18.73 9.1289 18.7261 9.27828 18.7316 9.42745C18.7316 9.499 18.804 9.62967 18.867 9.70745ZM11.944 10.5467C12.14 10.6276 12.2652 10.2542 12.3461 9.84511C12.4005 9.73 12.4425 9.71756 12.4705 9.77667C12.4635 10.3211 12.5094 10.4417 12.6494 10.6073C12.9613 10.8484 13.2195 10.6377 13.2405 10.6174L13.4832 10.3748C13.5368 10.318 13.6092 10.3141 13.6854 10.3647C13.7601 10.4316 13.75 10.5482 13.9086 10.6291C14.0424 10.6828 14.3286 10.6416 14.3947 10.5264C14.4842 10.374 14.506 10.3211 14.5464 10.2636C14.6102 10.1788 14.7191 10.2169 14.7191 10.2433C14.709 10.2908 14.6452 10.3382 14.6887 10.423C14.765 10.4798 14.7821 10.4432 14.8272 10.4308C14.9858 10.3546 15.1041 10.0108 15.1041 10.0108C15.1111 9.88245 15.0395 9.89334 14.9928 9.91978C14.9322 9.95634 14.9283 9.96878 14.8676 10.0061C14.7898 10.0178 14.6397 10.0691 14.5658 9.954C14.4896 9.81556 14.4881 9.62267 14.4305 9.48345C14.4305 9.47334 14.3294 9.26334 14.4235 9.25011C14.471 9.25867 14.5713 9.28511 14.5876 9.20111C14.6366 9.11867 14.4811 8.88378 14.3753 8.76478C14.2827 8.66367 14.1544 8.65122 14.0307 8.75467C13.9436 8.83478 13.9561 8.92345 13.939 9.00822C13.9248 9.06805 13.9249 9.13035 13.939 9.19016C13.9532 9.24998 13.9811 9.30566 14.0206 9.35278C14.107 9.52311 14.2649 9.74323 14.2127 10.0512C14.2127 10.0512 14.121 10.1974 13.96 10.1788C13.8931 10.164 13.7842 10.1352 13.7266 9.70745C13.6831 9.38311 13.7375 8.92967 13.5999 8.71734C13.5501 8.589 13.5143 8.46534 13.393 8.68467C13.3603 8.771 13.2203 8.90167 13.3222 9.17156C13.4054 9.34189 13.4388 9.61956 13.4015 9.92911C13.344 10.017 13.3315 10.0466 13.2561 10.1344C13.1503 10.248 13.036 10.2192 12.9481 10.1764C12.8656 10.1212 12.8018 10.0924 12.7645 9.91667C12.7715 9.63667 12.7871 9.17778 12.7357 9.08056C12.6603 8.92967 12.5359 8.98411 12.4822 9.03C12.2263 9.26411 12.1003 9.65845 12.0233 9.97189C11.9525 10.2006 11.8771 10.1352 11.8242 10.0427C11.6951 9.92134 11.6865 8.97478 11.5302 9.13111C11.279 9.842 11.6717 10.6229 11.944 10.5467Z" fill="white"/>
<path d="M15.6624 12.0743L15.5877 12.0315L14.1247 12.0245C14.0492 11.9957 14.0718 11.9708 14.1247 11.9506C14.4739 11.9031 15.0954 11.802 15.1366 11.2055C15.1296 10.8951 15.0028 10.6914 14.6217 10.6354C14.3425 10.6571 14.1426 10.9286 14.1745 11.2265C14.1612 11.3074 14.2009 11.4645 14.1192 11.4824C13.5818 11.5314 12.9961 11.8674 12.9767 12.1085C12.944 12.131 12.8709 12.0657 12.8802 11.963C12.8543 11.5239 12.728 11.0965 12.5108 10.7139C12.3412 10.5444 12.3941 10.6004 12.2806 10.6805C12.2075 10.7645 12.1942 10.822 12.1981 10.9893C12.1981 10.9955 12.335 11.3774 12.4509 11.6449C12.5279 11.9195 12.6002 12.2329 12.5481 12.5293C12.3677 12.9213 12.0045 13.2728 11.6545 13.4634C11.474 13.5217 11.3192 13.5007 11.2811 13.4603C11.1699 13.3856 11.1754 13.2479 11.1839 13.2456C11.4787 13.0395 11.8162 12.8738 12.0807 12.3193C12.1585 12.1077 12.1818 11.9794 12.1048 11.6519C12.0834 11.5365 12.0304 11.4294 11.9516 11.3424C11.999 11.3113 12.1351 11.4147 12.1561 11.3533C12.1167 11.174 12.0275 11.0096 11.8987 10.8788C11.7937 10.7831 11.6794 10.7723 11.5829 10.8601C11.474 10.9208 11.4507 11.137 11.5028 11.3268C11.5604 11.4699 11.7167 11.494 11.8287 11.781C11.8287 11.7873 11.8691 11.9957 11.8116 12.0774C11.7657 12.2205 11.1707 12.6879 11.138 12.7089C11.1217 12.7291 11.1287 12.6988 11.1264 12.621C11.1225 12.5261 11.1645 12.3021 11.1528 12.3006C10.9591 12.4258 10.8946 12.8093 10.8596 12.9228C10.3696 13.2611 9.81502 13.5131 9.49458 13.8569C9.32735 14.1175 10.6441 13.5575 10.7974 13.4898C10.8316 13.5147 10.8277 13.6321 10.9195 13.7371C11.0564 13.9223 11.3457 14.0366 11.6296 13.9658C12.104 13.7939 12.3786 13.4704 12.657 13.1118C12.6967 13.0535 12.7589 13.0091 12.8165 13.0535C13.0078 13.482 13.5608 13.7854 14.274 13.8173C14.4397 13.6158 14.3596 13.5186 14.2927 13.4766C14.2927 13.4704 13.9404 13.3366 13.8867 13.2028C13.854 13.0815 13.9334 12.9749 14.092 12.894C14.5501 12.8388 15.0005 12.7774 15.4368 12.6374C15.4415 12.4911 15.5262 12.2718 15.5846 12.1769C15.6406 12.0805 15.6709 12.1093 15.6624 12.0743ZM14.4591 11.1627C14.4809 11.1261 14.5532 11.1277 14.6209 11.1674C14.6886 11.2063 14.7267 11.2685 14.7041 11.305C14.6824 11.3424 14.6092 11.34 14.5416 11.3004C14.4739 11.2615 14.4374 11.2 14.4591 11.1627ZM13.8704 12.6405C13.7132 12.6941 13.5624 12.7361 13.5624 12.9633C13.6207 13.279 13.4822 13.1709 13.4006 13.1274C13.3041 13.0581 13.0327 12.8909 12.9938 12.53C12.9876 12.4437 13.0552 12.3714 13.1634 12.3714C13.3259 12.4157 13.5662 12.4188 13.7747 12.4406C13.945 12.4515 14.0298 12.5853 13.8704 12.6405ZM8.45158 9.13659C8.61958 9.21747 8.93691 9.18325 8.92291 8.91103C8.92291 8.88692 8.91669 8.80603 8.91435 8.78425C8.88013 8.70414 8.7868 8.72359 8.76502 8.80681C8.75802 8.83403 8.77669 8.87759 8.75258 8.89159C8.73858 8.90559 8.68491 8.89703 8.68724 8.82236C8.68724 8.79825 8.66935 8.77259 8.65924 8.75781C8.64835 8.75081 8.64213 8.74847 8.62269 8.74847C8.59935 8.74925 8.59935 8.75547 8.58691 8.7757C8.58147 8.79514 8.57369 8.81536 8.57369 8.83792C8.57058 8.86436 8.56047 8.8737 8.54102 8.87836C8.51924 8.87836 8.52391 8.8807 8.5068 8.86903C8.49591 8.85736 8.48269 8.8527 8.48269 8.83325C8.48262 8.81052 8.47895 8.78794 8.4718 8.76636C8.46247 8.75392 8.44769 8.74847 8.43058 8.74381C8.3388 8.74381 8.33258 8.84881 8.33802 8.88925C8.32947 8.89625 8.32635 9.08447 8.45158 9.13659Z" fill="white"/>
<path d="M13.6208 10.9099C13.6208 10.8857 13.603 10.8609 13.5928 10.8453C13.582 10.8383 13.5757 10.836 13.5563 10.836C13.533 10.8367 13.5337 10.843 13.5205 10.8632C13.5151 10.8834 13.5073 10.9029 13.5073 10.9254C13.505 10.9526 13.4941 10.962 13.4746 10.9659C13.4528 10.9659 13.4575 10.9682 13.4396 10.9573C13.4287 10.9456 13.4155 10.941 13.4155 10.9215C13.4155 10.8988 13.4118 10.8762 13.4046 10.8546C13.3953 10.8422 13.3805 10.8367 13.3634 10.8329C13.2716 10.8329 13.2654 10.9379 13.2701 10.9775C13.2631 10.9853 13.2592 11.1727 13.3844 11.2256C13.5532 11.3057 13.9537 11.2591 13.8557 11.0001C13.8541 10.9575 13.8512 10.915 13.8472 10.8725C13.813 10.7924 13.7188 10.8126 13.6978 10.8951C13.6916 10.9223 13.7103 10.9659 13.6854 10.9799C13.673 10.9939 13.6185 10.9853 13.6208 10.9099ZM16.263 10.36C16.431 10.4409 16.7475 10.4066 16.7335 10.1352C16.7319 10.0926 16.729 10.0501 16.725 10.0076C16.6907 9.92752 16.5974 9.94775 16.5764 10.0302C16.5694 10.0574 16.5881 10.101 16.5632 10.115C16.5492 10.129 16.4955 10.1212 16.4978 10.0457C16.4978 10.0216 16.48 9.99597 16.4698 9.98119C16.459 9.97419 16.4527 9.97186 16.4325 9.97186C16.4092 9.97341 16.41 9.97886 16.3967 9.99908C16.3913 10.0193 16.3835 10.0387 16.3835 10.0613C16.3804 10.0885 16.3703 10.0979 16.3508 10.1017C16.3291 10.1017 16.3337 10.1041 16.3158 10.0932C16.305 10.0815 16.2925 10.0769 16.2925 10.0574C16.2924 10.0344 16.2888 10.0116 16.2816 9.98975C16.2715 9.9773 16.2575 9.97186 16.2396 9.96797C16.1478 9.96797 16.1416 10.073 16.1471 10.1126C16.1416 10.1204 16.1377 10.3079 16.263 10.36ZM16.3765 9.30841C16.4364 9.47641 16.3306 9.63664 16.3936 9.65997C16.4504 9.68641 16.5313 9.48652 16.5608 9.30219C16.5958 9.15286 16.4893 8.84719 16.3384 8.78419C16.2466 8.76241 16.116 8.81686 16.158 8.93975C16.137 8.99886 16.3431 9.19953 16.3765 9.30841ZM17.9282 13.2471C18.0456 13.2479 18.181 12.9787 18.2385 12.712C18.2704 12.3449 18.2167 12.1216 18.2074 11.9054C18.1973 11.69 17.964 10.045 17.9157 9.88164C17.859 9.57286 18.1436 9.84041 18.1125 9.66075C18.0137 9.43441 17.7687 9.10541 17.691 8.90864C17.6443 8.82464 17.6645 8.74997 17.5603 8.88686C17.4646 9.20186 17.4312 9.45852 17.4677 9.65452C17.7151 10.9456 17.9686 12.019 17.9282 13.2471ZM20.8495 9.87153C20.8767 9.95553 20.8083 10.227 20.8651 10.2519C20.9172 10.2799 20.9903 10.0644 21.0175 9.86452C21.0323 9.75486 20.9522 9.37219 20.8145 9.30375C20.7305 9.28041 20.6115 9.33875 20.6504 9.47252C20.631 9.53708 20.8192 9.7533 20.8495 9.87153ZM10.6458 12.7151C10.6964 12.7361 10.7656 12.5774 10.7921 12.4304C10.8068 12.3495 10.7291 12.0687 10.5976 12.0182C10.5167 12.0011 10.4063 12.0229 10.4405 12.1426C10.4366 12.2072 10.6194 12.285 10.6303 12.4351C10.6567 12.4973 10.5914 12.6972 10.6458 12.7151ZM7.10229 9.12564C7.12795 9.19019 7.07662 9.3963 7.13029 9.41575C7.17929 9.43752 7.24851 9.27264 7.27418 9.12097C7.28895 9.03697 7.27729 8.7523 7.08284 8.69397C7.00273 8.67608 6.89151 8.72041 6.92806 8.8223C6.9094 8.87053 7.07351 9.03541 7.10229 9.12564ZM10.915 10.038C10.7664 10.1189 10.7081 10.3584 10.8014 10.4976C10.8877 10.6213 11.0246 10.5754 11.0433 10.5754C11.1895 10.5933 11.2758 10.3016 11.2758 10.3016C11.2758 10.3016 11.2805 10.22 11.1071 10.3747C11.034 10.3887 11.0246 10.3615 11.0067 10.3195C10.989 10.2434 10.9969 10.1636 11.0293 10.0924C11.0542 10.0201 10.9982 9.98819 10.915 10.038ZM12.0365 9.14119C12.0605 9.12638 12.0811 9.10666 12.0969 9.08334C12.1127 9.06002 12.1234 9.03361 12.1283 9.00586C12.1508 8.8923 12.0077 9.05952 11.9898 8.93275C11.958 8.8153 12.0497 8.76708 12.1368 8.65353C12.14 8.57497 12.1384 8.51975 12.0318 8.58353C11.9572 8.63408 11.8078 8.78808 11.8032 8.96541C11.7985 9.06575 11.7798 9.06497 11.846 9.12875C11.8934 9.19797 11.9408 9.19097 12.0365 9.14119ZM13.0468 9.20186C13.1433 8.94053 13.1433 8.83008 13.1503 8.71886C13.1207 8.55008 13.0064 8.55553 12.931 8.74297C12.8983 8.81375 12.8602 9.1863 12.8664 9.1863C12.8407 9.29752 12.9823 9.34497 13.0468 9.20186ZM19.4013 11.0553C19.4013 11.0553 18.6212 11.6099 18.6025 11.6293C18.5247 11.6977 18.5636 11.9404 18.6025 11.9124C18.6577 11.9342 19.4425 11.4014 19.427 11.3392C19.4635 11.3407 19.4814 11.0273 19.4013 11.0553ZM19.3056 12.5595C19.3577 12.5875 19.4954 12.4172 19.49 12.2049C19.5055 12.0952 19.4503 11.6931 19.3134 11.6246C19.2294 11.6013 19.1174 11.6729 19.1563 11.8059C19.1368 11.8696 19.2527 12.0929 19.2831 12.2111C19.3103 12.2959 19.2488 12.5346 19.3056 12.5595ZM14.8878 13.7231C14.8878 13.7301 14.954 13.7869 15.0317 13.7417C15.1951 13.6787 15.2977 13.6181 15.5264 13.5675C15.5863 13.5667 15.5824 13.4057 15.4875 13.4003C15.3638 13.4065 15.2487 13.4127 15.1251 13.5107C15.0488 13.5279 15.0364 13.482 15.0193 13.44C15.0006 13.3365 15.0621 13.265 15.0488 13.188C15.0535 13.1926 14.9781 13.1234 14.9011 13.1623C14.8972 13.1623 14.7292 13.2759 14.6755 13.3552C14.6421 13.3809 14.646 13.4026 14.6561 13.4454C14.6817 13.5045 14.7276 13.4866 14.779 13.4586C14.8474 13.4493 14.8801 13.4944 14.8746 13.5761C14.842 13.6795 14.8878 13.7176 14.8878 13.7231ZM19.9831 13.8522C19.9574 13.8965 19.9403 13.9634 20.0196 13.9844C20.1658 14.0256 20.5026 13.8063 20.5026 13.8024C20.5571 13.7612 20.5392 13.6842 20.5345 13.6842C20.5026 13.6476 20.4311 13.6686 20.3828 13.6632C20.3603 13.6632 20.2841 13.6515 20.3206 13.5846C20.3463 13.5486 20.3668 13.509 20.3813 13.4672C20.4038 13.4166 20.3844 13.3832 20.302 13.356C20.2187 13.3404 20.1853 13.3482 20.0927 13.356C20.043 13.3669 20.0258 13.3886 20.0165 13.4493C20.0204 13.5411 20.0756 13.5364 20.1332 13.573C20.1666 13.6157 20.1884 13.6546 20.1308 13.7239C20.0764 13.7744 20.0383 13.8024 19.9831 13.8522ZM19.8337 17.8889H18.6671V17.5C18.6671 17.3968 18.6261 17.2979 18.5532 17.225C18.4802 17.1521 18.3813 17.1111 18.2782 17.1111C18.175 17.1111 18.0761 17.1521 18.0032 17.225C17.9303 17.2979 17.8893 17.3968 17.8893 17.5V17.8889H8.55595C8.55595 17.8889 8.55595 18.6666 10.8893 18.6666H17.8893V19.0555C17.8893 19.1587 17.9303 19.2576 18.0032 19.3305C18.0761 19.4034 18.175 19.4444 18.2782 19.4444C18.3813 19.4444 18.4802 19.4034 18.5532 19.3305C18.6261 19.2576 18.6671 19.1587 18.6671 19.0555V18.6666H19.4448V19.0555C19.4448 19.1587 19.4858 19.2576 19.5587 19.3305C19.6317 19.4034 19.7306 19.4444 19.8337 19.4444C19.9369 19.4444 20.0358 19.4034 20.1087 19.3305C20.1816 19.2576 20.2226 19.1587 20.2226 19.0555V18.2777C20.2226 18.1746 20.1816 18.0757 20.1087 18.0028C20.0358 17.9298 19.9369 17.8889 19.8337 17.8889Z" fill="white"/>
</g>
<defs>
<clipPath id="clip0_85_1996">
<rect width="28" height="28" fill="white"/>
</clipPath>
</defs>
</svg>
