<svg width="230" height="192" viewBox="0 0 230 192" fill="none" xmlns="http://www.w3.org/2000/svg">
<g opacity="0.2">
<path d="M229.41 104.773L115.766 192H111.137L229.41 103.106V104.773Z" fill="white"/>
<path d="M229.41 162.216L190.606 192H185.782L229.41 159.21V162.216Z" fill="white"/>
<path d="M147.056 189.189C146.283 189.772 145.243 189.922 144.735 189.527C144.224 189.134 144.436 188.343 145.207 187.762L229.41 124.31V126.145L147.071 189.178C147.068 189.18 147.059 189.187 147.056 189.189Z" fill="white"/>
<path d="M229.41 119.018L134.325 192H129.95L229.41 117.249V119.018Z" fill="white"/>
<path d="M229.41 111.535L124.024 192H121.583L229.41 110.532V111.535Z" fill="white"/>
<path d="M27.0148 117.895C26.2425 118.477 25.2012 118.628 24.6933 118.233C24.1795 117.838 24.3917 117.046 25.1625 116.466L52.3215 96L25.1624 75.5345C24.3917 74.9537 24.1794 74.1617 24.6932 73.7668C25.2012 73.3719 26.2423 73.5229 27.0147 74.1049C27.0177 74.1072 27.0268 74.114 27.0297 74.1163L55.6162 96L27.0298 117.884C27.0269 117.886 27.0178 117.893 27.0148 117.895Z" fill="white"/>
<path d="M140.43 165.834C139.662 166.418 138.619 166.57 138.111 166.175C137.599 165.779 137.81 164.988 138.585 164.408L229.363 96L138.585 27.5919C137.81 27.0122 137.599 26.2213 138.111 25.8253C138.619 25.4304 139.662 25.5825 140.43 26.1657C140.433 26.168 140.443 26.176 140.446 26.1782L229.41 94.2827V96V97.7175L140.446 165.822C140.443 165.824 140.433 165.832 140.43 165.834Z" fill="white"/>
<path d="M229.41 154.421L180.321 192H177.398L229.41 152.806V154.421Z" fill="white"/>
<path d="M229.41 147.717L171.716 192H167.305L229.41 145.323V147.717Z" fill="white"/>
<path d="M175.659 181.184C175.147 181.573 174.452 181.674 174.11 181.412C173.772 181.151 173.91 180.625 174.424 180.234L229.41 138.69V140.144L175.667 181.178L175.659 181.184Z" fill="white"/>
<path d="M229.41 133.45L153.128 192H148.521L229.41 131.205V133.45Z" fill="white"/>
<path d="M229.41 169.806L200.571 192H195.456L229.41 166.548V169.806Z" fill="white"/>
<path d="M91.4338 174.664C90.6615 175.246 89.6232 175.399 89.1154 175.004C88.6016 174.609 88.8137 173.817 89.5844 173.236L192.08 95.9998L89.5845 18.7633C88.8138 18.1824 88.6016 17.3904 89.1155 16.9955C89.6233 16.6007 90.6615 16.754 91.4339 17.3359C91.437 17.3382 91.446 17.3451 91.4489 17.3472L194.191 95.9998L91.4488 174.652C91.4459 174.654 91.4369 174.661 91.4338 174.664Z" fill="white"/>
<path d="M126.423 151.883L200.777 95.9998L126.423 40.1166C125.393 39.3428 125.106 38.2898 125.787 37.7588C126.467 37.2312 127.85 37.4332 128.881 38.207C128.887 38.2116 128.903 38.2241 128.909 38.2287L204.177 95.9998L128.909 153.771C128.903 153.775 128.886 153.788 128.881 153.793C127.85 154.566 126.467 154.768 125.787 154.241C125.106 153.71 125.393 152.657 126.423 151.883Z" fill="white"/>
<path d="M220.187 96L92.4568 0H97.0682L222.143 96L97.0682 192H92.4568L220.187 96Z" fill="white"/>
<path d="M43.1802 137.991L98.7579 95.9998L43.1803 54.0086C42.6694 53.6206 42.5291 53.0918 42.8681 52.832C43.2102 52.5699 43.9035 52.6698 44.4173 53.0601L44.4233 53.0646L100.656 95.9998L44.4231 138.935L44.4171 138.939C43.9033 139.33 43.21 139.43 42.868 139.167C42.5291 138.908 42.6693 138.379 43.1802 137.991Z" fill="white"/>
<path d="M23.8762 148.391C22.8425 149.163 21.4592 149.364 20.7809 148.836C20.1013 148.308 20.3881 147.255 21.4174 146.478L88.5796 96.0001L21.4174 45.5221C20.3881 44.745 20.1013 43.692 20.7809 43.1644C21.4592 42.6358 22.8426 42.8376 23.8762 43.6093C23.8822 43.6138 23.8986 43.6263 23.9061 43.632L92.1328 96.0001L23.9061 148.368C23.8986 148.374 23.8822 148.386 23.8762 148.391Z" fill="white"/>
<path d="M99.6809 123.466L136.034 96L99.6809 68.5341C99.164 68.146 99.0265 67.6195 99.3671 67.3563C99.7092 67.0942 100.401 67.1974 100.916 67.5844L100.924 67.5901L138.133 96L100.924 124.41L100.916 124.416C100.401 124.803 99.7092 124.906 99.3671 124.644C99.0265 124.381 99.164 123.854 99.6809 123.466Z" fill="white"/>
<path d="M115.766 0L229.41 87.2267V88.8942L111.137 0H115.766Z" fill="white"/>
<path d="M190.606 0L229.41 29.7839V32.7902L185.782 0H190.606Z" fill="white"/>
<path d="M144.735 2.4727C145.243 2.07793 146.283 2.22768 147.056 2.8109C147.06 2.81318 147.068 2.8199 147.071 2.82224L229.41 65.8549V67.6901L145.207 4.23821C144.436 3.65726 144.224 2.86538 144.735 2.4727Z" fill="white"/>
<path d="M134.325 0L229.41 72.9818V74.7506L129.95 0H134.325Z" fill="white"/>
<path d="M124.024 0L229.41 80.4649V81.4683L121.583 0H124.024Z" fill="white"/>
<path d="M18.3064 80.7423L38.1328 95.9999L18.3064 111.258C18.296 111.265 18.2735 111.283 18.2616 111.292C16.9739 112.261 15.244 112.508 14.3956 111.845C13.5514 111.184 13.9084 109.864 15.1992 108.898L32.405 95.9999L15.1992 83.1022C13.9084 82.1355 13.5514 80.8159 14.3956 80.1546C15.244 79.4918 16.9739 79.7392 18.2616 80.7082C18.2735 80.7173 18.296 80.7344 18.3064 80.7423Z" fill="white"/>
<path d="M3.49113 62.8644L46.6621 95.9999L3.49113 129.135C3.48654 129.139 3.46862 129.153 3.4627 129.157C2.43202 129.931 1.04563 130.131 0.368988 129.605C-0.310654 129.078 -0.0239296 128.02 1.00542 127.247L42.581 95.9999L1.00534 64.7524C-0.0240135 63.9796 -0.310822 62.9223 0.368908 62.3946C1.04555 61.8693 2.43194 62.069 3.46262 62.8428C3.46863 62.8473 3.48654 62.8609 3.49113 62.8644Z" fill="white"/>
<path d="M180.321 0L229.41 37.5786V39.1945L177.398 0H180.321Z" fill="white"/>
<path d="M171.716 0L229.41 44.283V46.6774L167.305 0H171.716Z" fill="white"/>
<path d="M174.11 10.5875C174.452 10.3254 175.147 10.4263 175.659 10.8155L175.667 10.8212L229.41 51.8556V53.3097L174.424 11.7652C173.91 11.3749 173.772 10.8483 174.11 10.5875Z" fill="white"/>
<path d="M153.128 0L229.41 58.5495V60.7948L148.521 0H153.128Z" fill="white"/>
<path d="M200.571 0L229.41 22.1936V25.4526L195.456 0H200.571Z" fill="white"/>
<path d="M4.12209 42.8012L73.4326 95.9999L4.12209 149.199C4.11458 149.204 4.09808 149.217 4.09207 149.222C3.06431 149.998 1.6779 150.197 0.999847 149.669C0.320198 149.141 0.603943 148.086 1.63629 147.311L69.9066 95.9999L1.63638 44.6892C0.604027 43.9143 0.320198 42.8591 0.999924 42.3314C1.67799 41.8027 3.06439 42.0024 4.09216 42.7784C4.09808 42.783 4.11458 42.7955 4.12209 42.8012Z" fill="white"/>
<path d="M67.9132 6.09351L185.049 96.0001L67.9132 185.907C67.9086 185.91 67.8907 185.924 67.8848 185.928C66.8541 186.702 65.4677 186.902 64.788 186.374C64.1084 185.847 64.3951 184.789 65.4244 184.016L182.535 96.0001L65.4244 7.98387C64.3951 7.21112 64.1084 6.15362 64.788 5.62602C65.4677 5.09848 66.854 5.29814 67.8848 6.07197C67.8907 6.07647 67.9086 6.09002 67.9132 6.09351Z" fill="white"/>
<path d="M78.8173 23.3839C79.6627 22.7234 81.3927 22.9707 82.6833 23.9375C82.6952 23.9466 82.7177 23.9637 82.7281 23.9715L176.325 96.0001L82.7281 168.029C82.7176 168.037 82.6952 168.054 82.6833 168.063C81.3927 169.03 79.6627 169.277 78.8173 168.616C77.9732 167.955 78.3302 166.636 79.621 165.669L172.561 96.0001L79.621 26.3314C78.3302 25.3648 77.9732 24.0452 78.8173 23.3839Z" fill="white"/>
<path d="M166.974 96.0002L107.672 141.518C107.666 141.522 107.65 141.535 107.642 141.54C106.61 142.311 105.227 142.513 104.547 141.985C103.869 141.456 104.156 140.404 105.183 139.627L163.23 96.0002L105.183 52.3729C104.156 51.5968 103.869 50.5439 104.547 50.0152C105.227 49.4876 106.61 49.6895 107.642 50.4599C107.65 50.4656 107.666 50.4781 107.672 50.4826L166.974 96.0002Z" fill="white"/>
<path d="M54.208 17.4452L156.823 96.0002L54.208 174.555C54.2051 174.557 54.1932 174.566 54.1917 174.568C53.4193 175.15 52.3781 175.301 51.8687 174.907C51.3577 174.51 51.5729 173.72 52.3407 173.137L154.706 96.0002L52.3407 18.8635C51.5729 18.2803 51.3577 17.4907 51.8687 17.0936C52.378 16.6999 53.4193 16.8508 54.1917 17.4328C54.1932 17.434 54.2051 17.443 54.208 17.4452Z" fill="white"/>
<path d="M24.18 67.0261C24.522 66.764 25.2152 66.8639 25.7291 67.2542L25.7351 67.2587L63.3789 96L25.735 124.741L25.729 124.746C25.2151 125.136 24.5219 125.236 24.1799 124.974C23.8408 124.714 23.9811 124.185 24.4951 123.8L61.2894 96L24.4951 68.2004C23.9812 67.8147 23.8409 67.2859 24.18 67.0261Z" fill="white"/>
<path d="M98.929 10.2528C99.2712 9.9906 99.9614 10.0928 100.478 10.4808L100.484 10.4854L212.481 95.9999L100.484 181.514L100.478 181.519C99.9614 181.907 99.2712 182.009 98.929 181.747C98.587 181.485 98.7274 180.956 99.2413 180.57L211.172 95.9999L99.2413 11.4294C98.7274 11.0435 98.587 10.5149 98.929 10.2528Z" fill="white"/>
<path d="M66.2095 35.0883C66.8877 34.5594 68.271 34.7614 69.3018 35.5352C69.3078 35.5397 69.3256 35.5533 69.3316 35.5579L148.079 95.9999L69.3315 156.442C69.3255 156.447 69.3077 156.46 69.3017 156.465C68.271 157.238 66.8877 157.44 66.2094 156.912C65.5312 156.383 65.8151 155.328 66.8457 154.554L144.753 95.9999L66.8457 37.4458C65.8151 36.672 65.5312 35.6169 66.2095 35.0883Z" fill="white"/>
<path d="M30.0006 34.0692L110.686 95.9998L30.0006 157.931C29.9932 157.936 29.9767 157.949 29.9707 157.953C28.94 158.727 27.5538 158.927 26.8786 158.4C26.1989 157.873 26.4825 156.818 27.5148 156.043L107.401 95.9998L27.5148 35.9572C26.4826 35.1822 26.199 34.1271 26.8787 33.5995C27.5539 33.0729 28.9401 33.2727 29.9708 34.0465C29.9768 34.051 29.9933 34.0636 30.0006 34.0692Z" fill="white"/>
<path d="M82.7539 96.0001L65.7028 109.053C65.6999 109.055 65.6894 109.063 65.6864 109.066C64.9156 109.647 63.8759 109.801 63.365 109.404C62.8556 109.01 63.0663 108.219 63.8386 107.637L79.2816 96.0001L63.8386 84.3629C63.0663 83.7809 62.8556 82.9901 63.365 82.5964C63.8759 82.1993 64.9157 82.3535 65.6864 82.9345C65.6894 82.9367 65.6999 82.9447 65.7028 82.947L82.7539 96.0001Z" fill="white"/>
<path d="M119.883 96L72.3253 132.407C72.3222 132.409 72.3134 132.416 72.3103 132.418C71.5395 133.003 70.4998 133.153 69.9917 132.758C69.4779 132.363 69.69 131.572 70.4608 130.991L116.895 96L70.4609 61.0093C69.6901 60.4283 69.4779 59.6365 69.9918 59.2416C70.4998 58.8467 71.5396 58.9964 72.3104 59.5819C72.3135 59.5842 72.3223 59.5909 72.3254 59.5933L119.883 96Z" fill="white"/>
<path d="M56.8644 42.1861C57.5425 41.6573 58.9289 41.857 59.9596 42.6308C59.9656 42.6354 59.9834 42.6489 59.9894 42.6535L129.492 95.9998L59.9894 149.346C59.9835 149.351 59.9656 149.364 59.9596 149.369C58.9289 150.143 57.5425 150.342 56.8644 149.814C56.189 149.287 56.4729 148.232 57.5037 147.458L125.97 95.9998L57.5036 44.5414C56.4729 43.7677 56.189 42.7125 56.8644 42.1861Z" fill="white"/>
</g>
</svg>
