<svg width="118" height="118" viewBox="0 0 118 118" fill="none" xmlns="http://www.w3.org/2000/svg">
<rect x="1" y="1" width="116" height="116" rx="19" stroke="#F0A647" stroke-width="2"/>
<path d="M25.6369 19.6667C22.3396 19.6667 19.6667 22.3396 19.6667 25.6369V33.3631C19.6667 36.6604 22.3396 39.3333 25.6369 39.3333H33.3631C36.6604 39.3333 39.3333 36.6604 39.3333 33.3631V25.6369C39.3333 22.3396 36.6604 19.6667 33.3631 19.6667H25.6369ZM25.6369 14.75H33.3631C39.3758 14.75 44.25 19.6242 44.25 25.6369V33.3631C44.25 39.3758 39.3758 44.25 33.3631 44.25H25.6369C19.6242 44.25 14.75 39.3758 14.75 33.3631V25.6369C14.75 19.6242 19.6242 14.75 25.6369 14.75ZM25.6369 73.75H33.3631C39.3758 73.75 44.25 78.6242 44.25 84.6369V92.3631C44.25 98.3758 39.3758 103.25 33.3631 103.25H25.6369C19.6242 103.25 14.75 98.3758 14.75 92.3631V84.6369C14.75 78.6242 19.6242 73.75 25.6369 73.75ZM25.6369 78.6667C22.3396 78.6667 19.6667 81.3396 19.6667 84.6369V92.3631C19.6667 95.6604 22.3396 98.3333 25.6369 98.3333H33.3631C36.6604 98.3333 39.3333 95.6604 39.3333 92.3631V84.6369C39.3333 81.3396 36.6604 78.6667 33.3631 78.6667H25.6369ZM84.6369 14.75H92.3631C98.3758 14.75 103.25 19.6242 103.25 25.6369V33.3631C103.25 39.3758 98.3758 44.25 92.3631 44.25H84.6369C78.6242 44.25 73.75 39.3758 73.75 33.3631V25.6369C73.75 19.6242 78.6242 14.75 84.6369 14.75ZM84.6369 19.6667C81.3396 19.6667 78.6667 22.3396 78.6667 25.6369V33.3631C78.6667 36.6604 81.3396 39.3333 84.6369 39.3333H92.3631C95.6604 39.3333 98.3333 36.6604 98.3333 33.3631V25.6369C98.3333 22.3396 95.6604 19.6667 92.3631 19.6667H84.6369ZM63.9167 98.3333V95.875C63.9167 94.5173 65.0173 93.4167 66.375 93.4167C67.7327 93.4167 68.8333 94.5173 68.8333 95.875V98.3333H71.2917C72.6494 98.3333 73.75 99.434 73.75 100.792C73.75 102.149 72.6494 103.25 71.2917 103.25H61.4583C60.1006 103.25 59 102.149 59 100.792C59 99.434 60.1006 98.3333 61.4583 98.3333H63.9167ZM63.9167 54.0833H68.8333V51.625C68.8333 50.2673 69.934 49.1667 71.2917 49.1667C72.6494 49.1667 73.75 50.2673 73.75 51.625V56.5417C73.75 57.8994 72.6494 59 71.2917 59H56.5417C55.184 59 54.0833 57.8994 54.0833 56.5417C54.0833 55.184 55.184 54.0833 56.5417 54.0833H59V49.1667H56.5417C55.184 49.1667 54.0833 48.066 54.0833 46.7083C54.0833 45.3506 55.184 44.25 56.5417 44.25H61.4583C62.816 44.25 63.9167 45.3506 63.9167 46.7083V54.0833ZM93.4167 59V61.4583C93.4167 62.816 92.316 63.9167 90.9583 63.9167C89.6006 63.9167 88.5 62.816 88.5 61.4583V51.625C88.5 50.2673 89.6006 49.1667 90.9583 49.1667C92.316 49.1667 93.4167 50.2673 93.4167 51.625V54.0833H98.3333V51.625C98.3333 50.2673 99.434 49.1667 100.792 49.1667C102.149 49.1667 103.25 50.2673 103.25 51.625V56.5417C103.25 57.8994 102.149 59 100.792 59H93.4167ZM63.9167 68.8333H56.5417C55.184 68.8333 54.0833 67.7327 54.0833 66.375C54.0833 65.0173 55.184 63.9167 56.5417 63.9167H66.375C67.7327 63.9167 68.8333 65.0173 68.8333 66.375V76.2083C68.8333 77.566 67.7327 78.6667 66.375 78.6667H51.625C50.2673 78.6667 49.1667 77.566 49.1667 76.2083C49.1667 74.8506 50.2673 73.75 51.625 73.75H63.9167V68.8333ZM27.0417 24.5833H31.9583C33.316 24.5833 34.4167 25.684 34.4167 27.0417V31.9583C34.4167 33.316 33.316 34.4167 31.9583 34.4167H27.0417C25.684 34.4167 24.5833 33.316 24.5833 31.9583V27.0417C24.5833 25.684 25.684 24.5833 27.0417 24.5833ZM27.0417 83.5833H31.9583C33.316 83.5833 34.4167 84.684 34.4167 86.0417V90.9583C34.4167 92.316 33.316 93.4167 31.9583 93.4167H27.0417C25.684 93.4167 24.5833 92.316 24.5833 90.9583V86.0417C24.5833 84.684 25.684 83.5833 27.0417 83.5833ZM86.0417 24.5833H90.9583C92.316 24.5833 93.4167 25.684 93.4167 27.0417V31.9583C93.4167 33.316 92.316 34.4167 90.9583 34.4167H86.0417C84.684 34.4167 83.5833 33.316 83.5833 31.9583V27.0417C83.5833 25.684 84.684 24.5833 86.0417 24.5833ZM63.9167 24.5833V19.6667H54.0833V27.0417C54.0833 28.3994 52.9827 29.5 51.625 29.5C50.2673 29.5 49.1667 28.3994 49.1667 27.0417V17.2083C49.1667 15.8506 50.2673 14.75 51.625 14.75H66.375C67.7327 14.75 68.8333 15.8506 68.8333 17.2083V27.0417C68.8333 28.3994 67.7327 29.5 66.375 29.5H61.4583C60.1006 29.5 59 28.3994 59 27.0417C59 25.684 60.1006 24.5833 61.4583 24.5833H63.9167ZM51.625 39.3333C50.2673 39.3333 49.1667 38.2327 49.1667 36.875C49.1667 35.5173 50.2673 34.4167 51.625 34.4167H66.375C67.7327 34.4167 68.8333 35.5173 68.8333 36.875C68.8333 38.2327 67.7327 39.3333 66.375 39.3333H51.625ZM54.0833 88.5V100.792C54.0833 102.149 52.9827 103.25 51.625 103.25C50.2673 103.25 49.1667 102.149 49.1667 100.792V86.0417C49.1667 84.684 50.2673 83.5833 51.625 83.5833H66.375C67.7327 83.5833 68.8333 84.684 68.8333 86.0417C68.8333 87.3994 67.7327 88.5 66.375 88.5H54.0833ZM44.25 59H46.7083C48.066 59 49.1667 60.1006 49.1667 61.4583V66.375C49.1667 67.7327 48.066 68.8333 46.7083 68.8333C45.3506 68.8333 44.25 67.7327 44.25 66.375V63.9167H41.7917C40.434 63.9167 39.3333 62.816 39.3333 61.4583V51.625C39.3333 50.2673 40.434 49.1667 41.7917 49.1667H46.7083C48.066 49.1667 49.1667 50.2673 49.1667 51.625C49.1667 52.9827 48.066 54.0833 46.7083 54.0833H44.25V59ZM29.5 54.0833H27.0417C25.684 54.0833 24.5833 52.9827 24.5833 51.625C24.5833 50.2673 25.684 49.1667 27.0417 49.1667H31.9583C33.316 49.1667 34.4167 50.2673 34.4167 51.625V66.375C34.4167 67.7327 33.316 68.8333 31.9583 68.8333C30.6006 68.8333 29.5 67.7327 29.5 66.375V54.0833ZM78.6667 51.625C78.6667 50.2673 79.7673 49.1667 81.125 49.1667C82.4827 49.1667 83.5833 50.2673 83.5833 51.625V61.4583C83.5833 62.816 82.4827 63.9167 81.125 63.9167C79.7673 63.9167 78.6667 62.816 78.6667 61.4583V51.625ZM98.3333 68.8333V66.375C98.3333 65.0173 99.434 63.9167 100.792 63.9167C102.149 63.9167 103.25 65.0173 103.25 66.375V71.2917C103.25 72.6494 102.149 73.75 100.792 73.75H86.0417C84.684 73.75 83.5833 72.6494 83.5833 71.2917C83.5833 69.934 84.684 68.8333 86.0417 68.8333H98.3333ZM78.6667 78.6667H90.9583C92.316 78.6667 93.4167 79.7673 93.4167 81.125C93.4167 82.4827 92.316 83.5833 90.9583 83.5833H76.2083C74.8506 83.5833 73.75 82.4827 73.75 81.125V71.2917C73.75 69.934 74.8506 68.8333 76.2083 68.8333C77.566 68.8333 78.6667 69.934 78.6667 71.2917V78.6667ZM98.3333 98.3333V81.125C98.3333 79.7673 99.434 78.6667 100.792 78.6667C102.149 78.6667 103.25 79.7673 103.25 81.125V100.792C103.25 102.149 102.149 103.25 100.792 103.25H81.125C79.7673 103.25 78.6667 102.149 78.6667 100.792C78.6667 99.434 79.7673 98.3333 81.125 98.3333H98.3333ZM76.2083 93.4167C74.8506 93.4167 73.75 92.316 73.75 90.9583C73.75 89.6006 74.8506 88.5 76.2083 88.5H90.9583C92.316 88.5 93.4167 89.6006 93.4167 90.9583C93.4167 92.316 92.316 93.4167 90.9583 93.4167H76.2083ZM19.6667 63.9167H22.125C23.4827 63.9167 24.5833 65.0173 24.5833 66.375C24.5833 67.7327 23.4827 68.8333 22.125 68.8333H17.2083C15.8506 68.8333 14.75 67.7327 14.75 66.375V51.625C14.75 50.2673 15.8506 49.1667 17.2083 49.1667C18.566 49.1667 19.6667 50.2673 19.6667 51.625V63.9167Z" fill="#F0A647"/>
</svg>
